<?xml version="1.0" encoding="UTF-8"?>
<svg width="43px" height="43px" viewBox="0 0 43 43" version="1.1" xmlns="http://www.w3.org/2000/svg" xmlns:xlink="http://www.w3.org/1999/xlink">
    <!-- Generator: Sketch 51.3 (57544) - http://www.bohemiancoding.com/sketch -->
    <title>icon-6</title>
    <desc>Created with Sketch.</desc>
    <defs></defs>
    <g id="[BRANDED]-Unbounce-Landing-Page-Template" stroke="none" stroke-width="1" fill="none" fill-rule="evenodd" stroke-linecap="round" stroke-linejoin="round">
        <g id="Landing_Page_Template-V1" transform="translate(-24.000000, -9453.000000)" stroke="#0033FF" stroke-width="1.47">
            <g id="Group-129" transform="translate(0.000000, 8560.000000)">
                <g id="icon-6" transform="translate(25.000000, 893.000000)">
                    <polyline id="Stroke-1" points="11.946343 7.69645742 11.946343 12.2105732 7.43097712 12.2105732"></polyline>
                    <path d="M4.84197544,5.10533057 L11.1099833,11.3745886" id="Stroke-2"></path>
                    <polyline id="Stroke-3" points="33.3046979 39.0683737 33.3046979 34.5530079 37.8188137 34.5530079"></polyline>
                    <path d="M40.3290178,41.5785778 L34.06226,35.3080697" id="Stroke-4"></path>
                    <polyline id="Stroke-6" points="24.8344493 17.8872125 16.772406 17.8872125 16.772406 25.8487374"></polyline>
                    <g id="Group-11" transform="translate(0.000000, 0.535543)">
                        <polyline id="Stroke-7" points="16.7727486 29.5951693 16.7727486 41.5785778 41 41.5785778 41 17.3513264 28.9389181 17.3513264"></polyline>
                        <path d="M13.9903745,27.9841212 C6.46534921,27.9841212 0.363630174,21.8836867 0.363630174,14.3586614 C0.363630174,6.83235157 6.46534921,0.731917098 13.9903745,0.731917098 C21.5153998,0.731917098 27.6158343,6.83235157 27.6158343,14.3586614 C27.6158343,21.8836867 21.5153998,27.9841212 13.9903745,27.9841212 Z" id="Stroke-9"></path>
                    </g>
                </g>
            </g>
        </g>
    </g>
</svg>