<?xml version="1.0" encoding="UTF-8"?>
<svg width="75px" height="69px" viewBox="0 0 75 69" version="1.1" xmlns="http://www.w3.org/2000/svg" xmlns:xlink="http://www.w3.org/1999/xlink">
    <!-- Generator: Sketch 54.1 (76490) - https://sketchapp.com -->
    <title>Group 22</title>
    <desc>Created with Sketch.</desc>
    <g id="Finale_LandingPage-Features" stroke="none" stroke-width="1" fill="none" fill-rule="evenodd">
        <g id="Features-page_v1" transform="translate(-236.000000, -1853.000000)">
            <g id="Group-22" transform="translate(236.000000, 1851.000000)">
                <g id="Group-3" transform="translate(0.000000, 15.016216)" stroke="#0033FF" stroke-width="3.2">
                    <g id="Group-2">
                        <rect id="Rectangle-3-Copy" x="1.6" y="1.6" width="71.1783784" height="52.5837838" rx="1.568"></rect>
                    </g>
                </g>
                <g id="Group-21" transform="translate(14.875676, 31.751351)" stroke="#0033FF" stroke-width="3.2">
                    <polyline id="Path-3" stroke-linejoin="round" transform="translate(11.156757, 11.156757) rotate(45.000000) translate(-11.156757, -11.156757) " points="3.71891892 3.71891892 3.71891892 18.5945946 18.5945946 18.5945946"></polyline>
                    <polyline id="Path-3" stroke-linejoin="round" transform="translate(33.470270, 11.156757) scale(-1, -1) rotate(45.000000) translate(-33.470270, -11.156757) " points="26.0324324 3.71891892 26.0324324 18.5945946 40.9081081 18.5945946"></polyline>
                    <path d="M17.6648649,21.6754479 L26.9621622,0.92972973" id="Line-10" stroke-linecap="square"></path>
                </g>
                <g id="Group-3" transform="translate(38.000000, 9.735135) scale(1, -1) translate(-38.000000, -9.735135) translate(0.000000, 0.735135)" stroke="#0033FF" stroke-width="3.2">
                    <g id="Group-2">
                        <path d="M72.5226469,1.60010922 L1.6,3.20426309 L1.6,15.0950919 C1.6,15.067309 1.67729472,15.1351351 1.86899515,15.1351351 L72.5093832,15.1351351 C72.7010837,15.1351351 72.7783784,15.067309 72.7783784,15.0950919 L72.7783784,1.64004324 C72.7783784,1.66717631 72.704657,1.60312043 72.5226469,1.60010922 Z" id="Rectangle-3-Copy"></path>
                    </g>
                </g>
                <circle id="Oval" fill="#0033FF" cx="7.43783784" cy="9.73513514" r="1.85945946"></circle>
                <circle id="Oval" fill="#0033FF" cx="13.0162162" cy="9.73513514" r="1.85945946"></circle>
                <circle id="Oval" fill="#0033FF" cx="18.5945946" cy="9.73513514" r="1.85945946"></circle>
            </g>
        </g>
    </g>
</svg>